<svg width="20" height="20" viewBox="0 0 20 20" fill="none" xmlns="http://www.w3.org/2000/svg">
<path d="M16.4442 4.93818C16.4442 5.70103 15.8258 6.31943 15.063 6.31943C14.3001 6.31943 13.6817 5.70103 13.6817 4.93818C13.6817 4.17534 14.3001 3.55693 15.063 3.55693C15.8258 3.55693 16.4442 4.17534 16.4442 4.93818Z" fill="#F8F8F8"/>
<path fill-rule="evenodd" clip-rule="evenodd" d="M9.99837 14.6069C12.5412 14.6069 14.6025 12.5456 14.6025 10.0028C14.6025 7.45996 12.5412 5.3986 9.99837 5.3986C7.45556 5.3986 5.39421 7.45996 5.39421 10.0028C5.39421 12.5456 7.45556 14.6069 9.99837 14.6069ZM9.99837 12.7653C11.5241 12.7653 12.7609 11.5285 12.7609 10.0028C12.7609 8.47708 11.5241 7.24027 9.99837 7.24027C8.47269 7.24027 7.23587 8.47708 7.23587 10.0028C7.23587 11.5285 8.47269 12.7653 9.99837 12.7653Z" fill="#F8F8F8"/>
<path fill-rule="evenodd" clip-rule="evenodd" d="M0.790039 9.63444C0.790039 6.54014 0.790039 4.993 1.39223 3.81114C1.92193 2.77154 2.76715 1.92632 3.80674 1.39662C4.9886 0.794434 6.53575 0.794434 9.63004 0.794434H10.3667C13.461 0.794434 15.0081 0.794434 16.19 1.39662C17.2296 1.92632 18.0748 2.77154 18.6045 3.81114C19.2067 4.993 19.2067 6.54014 19.2067 9.63444V10.3711C19.2067 13.4654 19.2067 15.0125 18.6045 16.1944C18.0748 17.234 17.2296 18.0792 16.19 18.6089C15.0081 19.2111 13.461 19.2111 10.3667 19.2111H9.63004C6.53575 19.2111 4.9886 19.2111 3.80674 18.6089C2.76715 18.0792 1.92193 17.234 1.39223 16.1944C0.790039 15.0125 0.790039 13.4654 0.790039 10.3711V9.63444ZM9.63004 2.6361H10.3667C11.9442 2.6361 13.0166 2.63753 13.8455 2.70526C14.653 2.77123 15.0659 2.8908 15.3539 3.03756C16.047 3.39069 16.6104 3.95417 16.9636 4.64724C17.1103 4.93527 17.2299 5.34818 17.2959 6.1556C17.3636 6.98451 17.365 8.0569 17.365 9.63444V10.3711C17.365 11.9486 17.3636 13.021 17.2959 13.8499C17.2299 14.6574 17.1103 15.0703 16.9636 15.3583C16.6104 16.0514 16.047 16.6148 15.3539 16.968C15.0659 17.1147 14.653 17.2343 13.8455 17.3003C13.0166 17.368 11.9442 17.3694 10.3667 17.3694H9.63004C8.05251 17.3694 6.98012 17.368 6.1512 17.3003C5.34379 17.2343 4.93088 17.1147 4.64284 16.968C3.94978 16.6148 3.3863 16.0514 3.03317 15.3583C2.8864 15.0703 2.76683 14.6574 2.70086 13.8499C2.63314 13.021 2.63171 11.9486 2.63171 10.3711V9.63444C2.63171 8.0569 2.63314 6.98451 2.70086 6.1556C2.76683 5.34818 2.8864 4.93527 3.03317 4.64724C3.3863 3.95417 3.94978 3.39069 4.64284 3.03756C4.93088 2.8908 5.34379 2.77123 6.1512 2.70526C6.98012 2.63753 8.05251 2.6361 9.63004 2.6361Z" fill="#F8F8F8"/>
</svg>
