<svg width="20" height="20" viewBox="0 0 20 20" fill="none" xmlns="http://www.w3.org/2000/svg">
<path d="M5.23282 3.02042C5.23282 4.24979 4.23827 5.2464 3.01143 5.2464C1.78459 5.2464 0.790039 4.24979 0.790039 3.02042C0.790039 1.79104 1.78459 0.794434 3.01143 0.794434C4.23827 0.794434 5.23282 1.79104 5.23282 3.02042Z" fill="#F8F8F8"/>
<path d="M1.09382 6.88259H4.89107V19.2111H1.09382V6.88259Z" fill="#F8F8F8"/>
<path d="M11.0046 6.88259H7.20739V19.2111H11.0046C11.0046 19.2111 11.0046 15.3299 11.0046 12.9032C11.0046 11.4467 11.4688 9.98374 13.321 9.98374C15.4141 9.98374 15.4015 11.8899 15.3918 13.3666C15.379 15.2968 15.4095 17.2666 15.4095 19.2111H19.2067V12.7044C19.1745 8.54966 18.1641 6.63526 14.8399 6.63526C12.8657 6.63526 11.642 7.59553 11.0046 8.46431V6.88259Z" fill="#F8F8F8"/>
</svg>
