<svg width="20" height="16" viewBox="0 0 20 16" fill="none" xmlns="http://www.w3.org/2000/svg">
<path d="M6.57073 15.7889C4.44295 15.7889 2.45949 15.1514 0.790039 14.0514C2.20746 14.1459 4.70889 13.9197 6.26477 12.3909C3.92421 12.2803 2.86866 10.4311 2.73098 9.64091C2.92986 9.71993 3.87832 9.81476 4.41374 9.5935C1.72133 8.89809 1.30829 6.46419 1.40008 5.72137C1.9049 6.08488 2.76158 6.21131 3.09813 6.1797C0.589293 4.33057 1.49186 1.54896 1.9355 0.948382C3.73593 3.51781 6.43422 4.9609 9.77236 5.04117C9.70942 4.75682 9.67618 4.46078 9.67618 4.15672C9.67618 1.97456 11.3884 0.205566 13.5006 0.205566C14.6042 0.205566 15.5986 0.688483 16.2967 1.46093C17.0341 1.28292 18.144 0.86621 18.6866 0.505854C18.4131 1.51735 17.5617 2.36114 17.0466 2.67388C17.0424 2.6632 17.0509 2.68452 17.0466 2.67388C17.499 2.60339 18.7231 2.36106 19.2067 2.02309C18.9676 2.59134 18.0649 3.53615 17.3241 4.0651C17.4619 10.3266 12.8112 15.7889 6.57073 15.7889Z" fill="#F8F8F8"/>
</svg>
