<svg width="376" height="235" viewBox="0 0 376 235" fill="none" xmlns="http://www.w3.org/2000/svg">
<circle cx="10" cy="10" r="10" transform="matrix(1 0 0 -1 158 106)" fill="#0AC05E"/>
<circle cx="4" cy="4" r="4" transform="matrix(1 0 0 -1 75 135)" fill="#33EA23"/>
<circle cx="6" cy="6" r="6" transform="matrix(1 0 0 -1 67 12)" fill="#9B77EC"/>
<circle cx="6" cy="6" r="6" transform="matrix(1 0 0 -1 364 48)" fill="#FF0000"/>
<circle cx="6" cy="6" r="6" transform="matrix(1 0 0 -1 186 232)" fill="#392BD3"/>
<circle cx="3" cy="3" r="3" transform="matrix(1 0 0 -1 0 174)" fill="#C87C00"/>
<circle cx="3" cy="3" r="3" transform="matrix(1 0 0 -1 16 235)" fill="#B13DE1"/>
</svg>
