<svg width="544" height="272" viewBox="0 0 544 272" fill="none" xmlns="http://www.w3.org/2000/svg">
<path d="M544 2.3779e-05C544 35.7196 536.965 71.0894 523.295 104.09C509.626 137.09 489.591 167.076 464.333 192.333C439.076 217.591 409.09 237.626 376.09 251.295C343.089 264.965 307.72 272 272 272C236.28 272 200.911 264.965 167.91 251.295C134.91 237.626 104.924 217.591 79.6669 192.333C54.4094 167.076 34.374 137.09 20.7048 104.09C7.03548 71.0893 -3.1227e-06 35.7195 0 0L100.372 8.77476e-06C100.372 22.5386 104.811 44.8565 113.436 65.6794C122.061 86.5023 134.703 105.422 150.64 121.36C166.578 137.297 185.498 149.939 206.321 158.564C227.144 167.189 249.461 171.628 272 171.628C294.539 171.628 316.856 167.189 337.679 158.564C358.502 149.939 377.423 137.297 393.36 121.36C409.297 105.422 421.939 86.5023 430.564 65.6794C439.189 44.8565 443.629 22.5386 443.629 2.3779e-05H544Z" fill="#84B93E"/>
</svg>
